<svg width="82" height="43" viewBox="0 0 82 43" fill="none" xmlns="http://www.w3.org/2000/svg">
<path d="M17.5625 13.2188L4.4375 32.625H17.25V35H0.515625V34.2656L13.5312 14.9688H1.5625V12.5938H17.5625V13.2188ZM33.7031 27.6406H22.4062C22.4479 29.4219 22.9271 30.7969 23.8438 31.7656C24.7604 32.7344 26.0208 33.2188 27.625 33.2188C29.4271 33.2188 31.0833 32.625 32.5938 31.4375V33.8438C31.1875 34.8646 29.3281 35.375 27.0156 35.375C24.7552 35.375 22.9792 34.651 21.6875 33.2031C20.3958 31.7448 19.75 29.6979 19.75 27.0625C19.75 24.5729 20.4531 22.5469 21.8594 20.9844C23.276 19.4115 25.0312 18.625 27.125 18.625C29.2188 18.625 30.8385 19.3021 31.9844 20.6562C33.1302 22.0104 33.7031 23.8906 33.7031 26.2969V27.6406ZM31.0781 25.4688C31.0677 23.9896 30.7083 22.8385 30 22.0156C29.3021 21.1927 28.3281 20.7812 27.0781 20.7812C25.8698 20.7812 24.8438 21.2135 24 22.0781C23.1562 22.9427 22.6354 24.0729 22.4375 25.4688H31.0781ZM50.875 35H48.3125V25.875C48.3125 22.4792 47.0729 20.7812 44.5938 20.7812C43.3125 20.7812 42.25 21.2656 41.4062 22.2344C40.5729 23.1927 40.1562 24.4062 40.1562 25.875V35H37.5938V19H40.1562V21.6562H40.2188C41.4271 19.6354 43.1771 18.625 45.4688 18.625C47.2188 18.625 48.5573 19.1927 49.4844 20.3281C50.4115 21.4531 50.875 23.0833 50.875 25.2188V35Z" fill="#131313"/>
<path d="M73.72 9.69002C75.78 11.75 75.78 15.08 73.72 17.13C71.66 19.19 68.33 19.19 66.28 17.13C64.22 15.07 64.22 11.74 66.28 9.69002C68.33 7.63002 71.67 7.63002 73.72 9.69002Z" stroke="#131313" stroke-width="1.5093" stroke-linecap="round" stroke-linejoin="round"/>
<path d="M70 13.41L68.41 15" stroke="#131313" stroke-width="1.5093" stroke-linecap="round" stroke-linejoin="round"/>
<path d="M77.07 6.34003C77.22 6.49003 77.22 6.74003 77.07 6.90003C76.92 7.05003 76.67 7.05003 76.51 6.90003C76.35 6.75003 76.36 6.50003 76.51 6.34003C76.66 6.18003 76.92 6.18003 77.07 6.34003Z" stroke="#131313" stroke-miterlimit="10"/>
<path d="M77.07 6.34003C77.22 6.49003 77.22 6.74003 77.07 6.90003C76.92 7.05003 76.67 7.05003 76.51 6.90003C76.35 6.75003 76.36 6.50003 76.51 6.34003C76.66 6.18003 76.92 6.18003 77.07 6.34003Z" stroke="#131313" stroke-width="1.5" stroke-linecap="round" stroke-linejoin="round"/>
<path d="M63.49 19.92C63.64 20.07 63.64 20.32 63.49 20.48C63.34 20.64 63.09 20.63 62.93 20.48C62.78 20.33 62.78 20.08 62.93 19.92C63.08 19.76 63.34 19.76 63.49 19.92Z" stroke="#131313" stroke-miterlimit="10"/>
<path d="M63.49 19.92C63.64 20.07 63.64 20.32 63.49 20.48C63.34 20.64 63.09 20.63 62.93 20.48C62.78 20.33 62.78 20.08 62.93 19.92C63.08 19.76 63.34 19.76 63.49 19.92Z" stroke="#131313" stroke-width="1.5" stroke-linecap="round" stroke-linejoin="round"/>
<path d="M79.88 13.13C80.03 13.28 80.03 13.53 79.88 13.69C79.73 13.84 79.48 13.84 79.32 13.69C79.16 13.54 79.17 13.29 79.32 13.13C79.47 12.97 79.73 12.97 79.88 13.13Z" stroke="#131313" stroke-miterlimit="10"/>
<path d="M79.88 13.13C80.03 13.28 80.03 13.53 79.88 13.69C79.73 13.84 79.48 13.84 79.32 13.69C79.16 13.54 79.17 13.29 79.32 13.13C79.47 12.97 79.73 12.97 79.88 13.13Z" stroke="#131313" stroke-width="1.5" stroke-linecap="round" stroke-linejoin="round"/>
<path d="M60.67 13.13C60.82 13.28 60.82 13.53 60.67 13.69C60.52 13.85 60.27 13.84 60.11 13.69C59.96 13.54 59.96 13.29 60.11 13.13C60.27 12.97 60.52 12.97 60.67 13.13Z" stroke="#131313" stroke-miterlimit="10"/>
<path d="M60.67 13.13C60.82 13.28 60.82 13.53 60.67 13.69C60.52 13.85 60.27 13.84 60.11 13.69C59.96 13.54 59.96 13.29 60.11 13.13C60.27 12.97 60.52 12.97 60.67 13.13Z" stroke="#131313" stroke-width="1.5" stroke-linecap="round" stroke-linejoin="round"/>
<path d="M77.07 19.92C77.22 20.07 77.22 20.32 77.07 20.48C76.92 20.63 76.67 20.63 76.51 20.48C76.35 20.33 76.36 20.08 76.51 19.92C76.67 19.76 76.92 19.76 77.07 19.92Z" stroke="#131313" stroke-miterlimit="10"/>
<path d="M77.07 19.92C77.22 20.07 77.22 20.32 77.07 20.48C76.92 20.63 76.67 20.63 76.51 20.48C76.35 20.33 76.36 20.08 76.51 19.92C76.67 19.76 76.92 19.76 77.07 19.92Z" stroke="#131313" stroke-width="1.5" stroke-linecap="round" stroke-linejoin="round"/>
<path d="M63.49 6.34003C63.64 6.49003 63.64 6.74003 63.49 6.90003C63.34 7.06003 63.09 7.05003 62.93 6.90003C62.78 6.75003 62.78 6.50003 62.93 6.34003C63.08 6.18003 63.34 6.18003 63.49 6.34003Z" stroke="#131313" stroke-miterlimit="10"/>
<path d="M63.49 6.34003C63.64 6.49003 63.64 6.74003 63.49 6.90003C63.34 7.06003 63.09 7.05003 62.93 6.90003C62.78 6.75003 62.78 6.50003 62.93 6.34003C63.08 6.18003 63.34 6.18003 63.49 6.34003Z" stroke="#131313" stroke-width="1.5" stroke-linecap="round" stroke-linejoin="round"/>
<path d="M70.28 3.52003C70.43 3.67003 70.43 3.92003 70.28 4.08003C70.13 4.24003 69.88 4.23003 69.72 4.08003C69.56 3.93003 69.57 3.68003 69.72 3.52003C69.87 3.36003 70.13 3.37003 70.28 3.52003Z" stroke="#131313" stroke-miterlimit="10"/>
<path d="M70.28 3.52003C70.43 3.67003 70.43 3.92003 70.28 4.08003C70.13 4.24003 69.88 4.23003 69.72 4.08003C69.56 3.93003 69.57 3.68003 69.72 3.52003C69.87 3.36003 70.13 3.37003 70.28 3.52003Z" stroke="#131313" stroke-width="1.5" stroke-linecap="round" stroke-linejoin="round"/>
</svg>
