<svg width="102" height="43" viewBox="0 0 102 43" fill="none" xmlns="http://www.w3.org/2000/svg">
<path d="M2.9375 35V12.5938H9.125C17.0208 12.5938 20.9688 16.2344 20.9688 23.5156C20.9688 26.974 19.8698 29.7552 17.6719 31.8594C15.4844 33.9531 12.5521 35 8.875 35H2.9375ZM5.5625 14.9688V32.625H8.90625C11.8438 32.625 14.1302 31.8385 15.7656 30.2656C17.401 28.6927 18.2188 26.4635 18.2188 23.5781C18.2188 17.8385 15.1667 14.9688 9.0625 14.9688H5.5625ZM37.8906 27.6406H26.5938C26.6354 29.4219 27.1146 30.7969 28.0312 31.7656C28.9479 32.7344 30.2083 33.2188 31.8125 33.2188C33.6146 33.2188 35.2708 32.625 36.7812 31.4375V33.8438C35.375 34.8646 33.5156 35.375 31.2031 35.375C28.9427 35.375 27.1667 34.651 25.875 33.2031C24.5833 31.7448 23.9375 29.6979 23.9375 27.0625C23.9375 24.5729 24.6406 22.5469 26.0469 20.9844C27.4635 19.4115 29.2188 18.625 31.3125 18.625C33.4062 18.625 35.026 19.3021 36.1719 20.6562C37.3177 22.0104 37.8906 23.8906 37.8906 26.2969V27.6406ZM35.2656 25.4688C35.2552 23.9896 34.8958 22.8385 34.1875 22.0156C33.4896 21.1927 32.5156 20.7812 31.2656 20.7812C30.0573 20.7812 29.0312 21.2135 28.1875 22.0781C27.3438 22.9427 26.8229 24.0729 26.625 25.4688H35.2656ZM55.0625 35H51.4688L44.4062 27.3125H44.3438V35H41.7812V11.3125H44.3438V26.3281H44.4062L51.125 19H54.4844L47.0625 26.7188L55.0625 35ZM70.625 35H68.0625V32.4688H68C66.9375 34.4062 65.2917 35.375 63.0625 35.375C59.25 35.375 57.3438 33.1042 57.3438 28.5625V19H59.8906V28.1562C59.8906 31.5312 61.1823 33.2188 63.7656 33.2188C65.0156 33.2188 66.0417 32.7604 66.8438 31.8438C67.6562 30.9167 68.0625 29.7083 68.0625 28.2188V19H70.625V35Z" fill="#131313"/>
<path d="M93.7199 9.69002C95.7799 11.75 95.7799 15.08 93.7199 17.13C91.6599 19.19 88.3299 19.19 86.2799 17.13C84.2199 15.07 84.2199 11.74 86.2799 9.69002C88.3299 7.63002 91.6699 7.63002 93.7199 9.69002Z" stroke="#131313" stroke-width="1.5093" stroke-linecap="round" stroke-linejoin="round"/>
<path d="M89.9999 13.41L88.4099 15" stroke="#131313" stroke-width="1.5093" stroke-linecap="round" stroke-linejoin="round"/>
<path d="M97.0701 6.34003C97.2201 6.49003 97.2201 6.74003 97.0701 6.90003C96.9201 7.05003 96.6701 7.05003 96.5101 6.90003C96.3501 6.75003 96.3601 6.50003 96.5101 6.34003C96.6601 6.18003 96.9201 6.18003 97.0701 6.34003Z" stroke="#131313" stroke-miterlimit="10"/>
<path d="M97.0701 6.34003C97.2201 6.49003 97.2201 6.74003 97.0701 6.90003C96.9201 7.05003 96.6701 7.05003 96.5101 6.90003C96.3501 6.75003 96.3601 6.50003 96.5101 6.34003C96.6601 6.18003 96.9201 6.18003 97.0701 6.34003Z" stroke="#131313" stroke-width="1.5" stroke-linecap="round" stroke-linejoin="round"/>
<path d="M83.4899 19.92C83.6399 20.07 83.6399 20.32 83.4899 20.48C83.3399 20.64 83.0899 20.63 82.9299 20.48C82.7799 20.33 82.7799 20.08 82.9299 19.92C83.0799 19.76 83.3399 19.76 83.4899 19.92Z" stroke="#131313" stroke-miterlimit="10"/>
<path d="M83.4899 19.92C83.6399 20.07 83.6399 20.32 83.4899 20.48C83.3399 20.64 83.0899 20.63 82.9299 20.48C82.7799 20.33 82.7799 20.08 82.9299 19.92C83.0799 19.76 83.3399 19.76 83.4899 19.92Z" stroke="#131313" stroke-width="1.5" stroke-linecap="round" stroke-linejoin="round"/>
<path d="M99.8799 13.13C100.03 13.28 100.03 13.53 99.8799 13.69C99.7299 13.84 99.4799 13.84 99.3199 13.69C99.1599 13.54 99.1699 13.29 99.3199 13.13C99.4699 12.97 99.7299 12.97 99.8799 13.13Z" stroke="#131313" stroke-miterlimit="10"/>
<path d="M99.8799 13.13C100.03 13.28 100.03 13.53 99.8799 13.69C99.7299 13.84 99.4799 13.84 99.3199 13.69C99.1599 13.54 99.1699 13.29 99.3199 13.13C99.4699 12.97 99.7299 12.97 99.8799 13.13Z" stroke="#131313" stroke-width="1.5" stroke-linecap="round" stroke-linejoin="round"/>
<path d="M80.6701 13.13C80.8201 13.28 80.8201 13.53 80.6701 13.69C80.5201 13.85 80.2701 13.84 80.1101 13.69C79.9601 13.54 79.9601 13.29 80.1101 13.13C80.2701 12.97 80.5201 12.97 80.6701 13.13Z" stroke="#131313" stroke-miterlimit="10"/>
<path d="M80.6701 13.13C80.8201 13.28 80.8201 13.53 80.6701 13.69C80.5201 13.85 80.2701 13.84 80.1101 13.69C79.9601 13.54 79.9601 13.29 80.1101 13.13C80.2701 12.97 80.5201 12.97 80.6701 13.13Z" stroke="#131313" stroke-width="1.5" stroke-linecap="round" stroke-linejoin="round"/>
<path d="M97.0701 19.92C97.2201 20.07 97.2201 20.32 97.0701 20.48C96.9201 20.63 96.6701 20.63 96.5101 20.48C96.3501 20.33 96.3601 20.08 96.5101 19.92C96.6701 19.76 96.9201 19.76 97.0701 19.92Z" stroke="#131313" stroke-miterlimit="10"/>
<path d="M97.0701 19.92C97.2201 20.07 97.2201 20.32 97.0701 20.48C96.9201 20.63 96.6701 20.63 96.5101 20.48C96.3501 20.33 96.3601 20.08 96.5101 19.92C96.6701 19.76 96.9201 19.76 97.0701 19.92Z" stroke="#131313" stroke-width="1.5" stroke-linecap="round" stroke-linejoin="round"/>
<path d="M83.4899 6.34003C83.6399 6.49003 83.6399 6.74003 83.4899 6.90003C83.3399 7.06003 83.0899 7.05003 82.9299 6.90003C82.7799 6.75003 82.7799 6.50003 82.9299 6.34003C83.0799 6.18003 83.3399 6.18003 83.4899 6.34003Z" stroke="#131313" stroke-miterlimit="10"/>
<path d="M83.4899 6.34003C83.6399 6.49003 83.6399 6.74003 83.4899 6.90003C83.3399 7.06003 83.0899 7.05003 82.9299 6.90003C82.7799 6.75003 82.7799 6.50003 82.9299 6.34003C83.0799 6.18003 83.3399 6.18003 83.4899 6.34003Z" stroke="#131313" stroke-width="1.5" stroke-linecap="round" stroke-linejoin="round"/>
<path d="M90.28 3.52003C90.43 3.67003 90.43 3.92003 90.28 4.08003C90.13 4.24003 89.88 4.23003 89.72 4.08003C89.56 3.93003 89.57 3.68003 89.72 3.52003C89.87 3.36003 90.13 3.37003 90.28 3.52003Z" stroke="#131313" stroke-miterlimit="10"/>
<path d="M90.28 3.52003C90.43 3.67003 90.43 3.92003 90.28 4.08003C90.13 4.24003 89.88 4.23003 89.72 4.08003C89.56 3.93003 89.57 3.68003 89.72 3.52003C89.87 3.36003 90.13 3.37003 90.28 3.52003Z" stroke="#131313" stroke-width="1.5" stroke-linecap="round" stroke-linejoin="round"/>
</svg>
